
<!-- Generator: Adobe Illustrator 25.4.1, SVG Export Plug-In . SVG Version: 6.00 Build 0)  -->
<svg version="1.1" id="Layer_1" xmlns="http://www.w3.org/2000/svg"  x="0px" y="0px"
	 viewBox="0 0 1000 425.15">
<!-- <style type="text/css">
	.st0{fill:#005EA6;stroke:#2C31FF;stroke-width:0.25;stroke-miterlimit:10;}
	.st1{display:none;}
	.st2{display:inline;fill:#231F20;}
	.st3{display:inline;}
	.st4{fill:#634FA0;stroke:#333333;stroke-width:4;stroke-miterlimit:10;}
	.st5{fill:#634FA0;}
	.st6{fill:#FCBD18;}
	.st7{fill:#FCBD18;stroke:#FCBD18;stroke-miterlimit:10;}
	.st8{fill:#FFFFFF;stroke:#2C31FF;stroke-width:0.25;stroke-miterlimit:10;}
	.st9{fill:#FFFFFF;}
</style> -->

	
		<path fill="#222222" class="st9" d="M359.35,343.47c-2.85-6.24-7.59-9.22-14.16-10.23c-3.51-0.54-7.47-1.12-10.23-3.06
			c-7.44-5.23-14.34-11.22-21.46-16.89c-2.99-2.37-3.65-5.49-3.88-9.17c-0.21-3.3-1.25-6.68-2.62-9.73
			c-4-8.85-8.37-17.33-7.98-27.69c0.62-16.56,0.27-33.17,0.12-49.76c-0.06-6.76,2.2-12.22,6.98-16.95
			c4.75-4.71,5.37-11.76,1.84-17.45c-3.7-5.97-9.41-7.1-16-7.1c-5.47,0-11.7,0.3-16.29-2.08c-17.98-9.34-35.5-19.58-53.06-29.73
			c-6.11-3.54-10.57-8.67-12.82-15.67c-1.75-5.47-8.64-9.31-14.06-8.4c-7.63,1.27-13.03,6.27-12.88,12.79
			c0.12,5.17-2.25,8.11-6.47,10.3c-2.67,1.37-5.23,2.99-7.84,4.48c-17,9.68-33.9,19.52-51.02,28.96
			c-6.98,3.86-11.48,0.97-11.54-6.95c-0.09-13.72-0.02-27.43-0.02-41.16h-0.35c0-6.79-0.05-13.57,0.02-20.36
			c0.05-6.79,0-13.57,0.32-20.35c0.53-11.61,10.65-24.09,21.64-27.57c13.88-4.42,20.18,4.21,19.77,14.63
			c-0.24,6.33-0.35,12.68,0.03,19c0.6,9.61-1.42,17.96-8.23,25.28c-4.87,5.23-3.3,14.34,2.37,18.94c5.88,4.8,15.44,4.28,20.12-0.97
			c4.9-5.5,5.78-14.27-0.36-20.32c-4.93-4.89-6.64-10.98-6.83-17.6c-0.18-6.77-0.35-13.56,0-20.32c0.38-7.25,1.7-14.28,7.15-19.86
			c5.46-5.61,5.9-12.7,1.16-18.31c-4.55-5.38-11.55-8.57-18.7-3.97c-2.79,1.79-4.98,4.78-6.92,7.59
			c-5.28,7.6-12.17,11.06-21.34,8.85c-3.63-0.86-7.1-2.38-10.71-3.42c-5.81-1.69-10.92-0.08-14.67,4.43
			c-3.54,4.25-5.25,9.14-1.89,14.52c1.6,2.55,2.9,5.26,4.46,7.81c2.73,4.42,4.52,8.94,4.48,14.36c-0.18,23.38-0.29,46.75,0.03,70.13
			c0.11,7.04-2.04,12.85-5.97,18.38c-6.2,8.75-6.06,13.32,0.14,22.08c3.68,5.22,5.96,10.78,5.82,17.53
			c-0.33,16.74-0.38,33.5,0.05,50.22c0.23,8.93-1.3,16.77-7.13,23.9c-3.92,4.8-4.87,10.53-1.18,16.38
			c3.09,4.89,7.62,7.24,12.99,6.32c12.31-2.1,22.14,3.3,32.06,9.18c10.69,6.33,21.51,12.46,32.38,18.48
			c8.45,4.68,15.97,9.92,19.17,19.85c2.13,6.59,6.36,8.84,13.62,8.66c6-0.14,11.15-3.57,12.61-9.71
			c1.78-7.44,6.41-11.73,12.76-15.29c15.55-8.7,30.84-17.9,46.38-26.65c10.23-5.76,21.17-8.82,32.15-2.58
			c6.97,3.97,13.15,9.31,19.55,14.21c5.7,4.37,8.13,10.66,9.34,17.48c1.89,10.69,11.02,15.16,20.39,9.94
			C356.98,356.44,361.36,347.84,359.35,343.47z M210.34,146.24c2.32,1.1,6.98,2.99,11.33,5.44c16.85,9.52,33.51,19.4,50.45,28.79
			c8.27,4.58,11.88,11.66,12.13,20.51c0.09,2.85-1.43,6.21-3.24,8.57c-7.96,10.38-16.21,20.53-24.52,30.62
			c-3.54,4.28-5.61,4.46-10.51,1.66c-19.82-11.33-39.65-22.67-59.44-34.06c-8.96-5.14-9.2-7.03-4.98-18.31
			c3.68-9.8,6.74-19.82,10.03-29.76C194.45,151.01,198.47,146.07,210.34,146.24z M173.66,228.75c0.02-0.2,0.05-0.41,0.06-0.59
			c0.09-0.72,0.17-1.46,0.26-2.19c0.24-1.9,0.56-3.8,0.68-5.69c0.02-0.09,0.02-0.12,0.02-0.12c0.45-6.98,4.18-9.18,10.26-5.75
			c10.59,5.97,21.1,12.1,31.61,18.23c6.98,4.07,14.03,8.08,20.81,12.49c6.14,3.98,6.12,7.3-0.27,10.89
			c-9.4,5.28-19.06,10.09-28.72,14.9c-9.5,4.72-19.11,9.25-28.7,13.77c-3.33,1.55-6.65-0.17-6.98-3.66
			c-0.02-0.23-0.05-0.44-0.06-0.66v-0.17C172.09,253.71,172.91,237.53,173.66,228.75z M187.73,144.84c-0.57,3-0.69,4.72-1.22,6.3
			c-4.6,13.77-9.15,27.55-14.01,41.22c-2.26,6.36-5.46,7.31-12.04,5.44c-9.8-2.79-19.73-5.17-29.62-7.68
			c-3.74-0.95-7.54-1.7-11.3-2.62c-0.83-0.21-1.6-0.77-3.23-1.57C140.66,171.92,163.62,158.73,187.73,144.84z M105.93,282.34
			c-0.42-5.55-0.36-11.15-0.47-16.71c-0.2-9.8-0.54-19.59-0.45-29.38c0.09-7.81-0.03-15.76,1.39-23.39
			c0.87-4.75,3.77-9.56,6.97-13.32c4.12-4.84,10.27-3.45,15.69-2.23c10.24,2.31,20.35,5.16,30.57,7.56
			c5.23,1.24,8.28,5.31,8.26,11.78v2.01c0,0.02,0,0.02,0,0.03c-1.3,10.47-1.92,18.51-2.2,23.78l-0.08,1.31l-0.23,3.59
			c0,10.69,0.3,21.4-0.09,32.08c-0.29,8.02-2.38,10.45-10.21,11.81c-11.07,1.93-22.23,3.47-33.41,4.68
			C114.53,296.71,106.5,289.56,105.93,282.34z M182.11,343.57c-21.31-12.25-42.62-24.48-63.92-36.72l-1.55-0.66l2.02-0.75
			c2.67-0.8,5.29-1.89,8.02-2.32c6.36-1.01,12.79-1.61,19.15-2.56c4.58-0.69,9.11-1.76,13.69-2.46c4.22-0.62,7.47,1.1,9.02,5.1
			c3.38,8.61,6.58,17.27,9.77,25.94c1.57,4.24,2.99,8.54,4.46,12.8c0.03,0.05,0.08,0.14,0.11,0.27c0.05,0.2,0.12,0.39,0.2,0.59
			c0.41,1.04,1.12,2.08,1.21,2.23L182.11,343.57z M281.54,302.38c0,0.02-0.02,0.03-0.02,0.05c-1.16,2.65-3.32,4.66-5.97,6.42
			c-0.11,0.08-0.21,0.14-0.32,0.21c-0.21,0.14-0.42,0.27-0.63,0.39c-0.17,0.12-0.33,0.21-0.5,0.3c-0.48,0.3-1,0.59-1.51,0.87
			c-19.37,10.8-38.62,21.81-57.85,32.85c-5.25,3.02-10.32,0.9-15.32-0.17c-6.94-1.49-10.9-6.24-13.12-12.93
			c-2.29-6.95-5.19-13.69-7.69-20.57c-3.88-10.66-2.19-15.04,7.81-19.97c12.74-6.3,25.59-12.4,38.31-18.79
			c5.73-2.88,11.25-6.17,16.79-9.43c7.24-4.24,12.85-3.39,18.43,2.85c6,6.71,12.1,13.36,18.16,20.03c1.3,1.43,2.56,2.85,3.41,4.42
			c0,0,0.06,0.11,0.15,0.3c0.05,0.09,0.09,0.2,0.15,0.33c0.26,0.51,0.45,1.04,0.57,1.6C283.17,293.67,283.84,297.96,281.54,302.38z
			 M290.67,287.38c-9.92-10.83-19.3-20.72-28.26-30.98c-3.88-4.45-3.21-7.95,0.62-12.46c7.15-8.39,14.22-16.85,21.3-25.29
			c0.18-0.23,0.39-0.48,0.65-0.78c5.23-6.26,5.7-10.68,5.7-10.68V287.38z"/>
		<circle class="st9" cx="136.4" cy="257.78" r="13.25"/>
	
	
		<path class="st9" d="M399.55,191.64c8.09-5.72,12.18-13.82,12.18-24.13c0-19.86-14.48-29.93-43.02-29.93
			c-6.63,0-20.76,0.44-42,1.31l-1.65,0.07l-1.95,7.13l14.53,5.91v81.96c0,1.08-0.19,1.89-0.56,2.34c-0.21,0.26-0.92,0.94-3.13,1.8
			l-10.84,4.53l1.94,7.12l1.66,0.07c21.78,0.87,36.68,1.31,44.29,1.31c7.8,0,15.49-1.02,22.91-3.04c4.58-1.37,8.49-3.19,11.62-5.39
			c3.23-2.27,5.92-5.43,7.99-9.4c2.07-3.97,3.12-8.64,3.12-13.9C416.64,206.29,410.9,196.97,399.55,191.64z M356.07,201.71
			c0-1.13,0.1-1.83,2.16-1.83h15.88c15.54,0,22.78,6.56,22.78,20.66c0,6.55-1.7,11.14-5.19,14c-6,1.81-13.07,2.72-21.03,2.72
			c-6.64,0-11.53-0.14-14.6-0.41V201.71z M387.21,184.02c-4.99,1.99-11.06,2.99-18.02,2.99c-5.81,0-10.21-0.13-13.13-0.4v-33.68
			c0-1.24,0.21-1.83,2.16-1.83h13.42c7.43,0,12.71,1.84,15.68,5.47c3.08,3.77,4.65,8.8,4.65,14.94
			C391.98,177.39,390.42,181.48,387.21,184.02z"/>
		<path class="st9" d="M450.05,154.73c0-1.08,0.19-1.89,0.56-2.34c0.21-0.25,0.92-0.94,3.13-1.8l10.84-4.53l-1.96-7.18h-43.56
			l-1.96,7.2l14.53,5.91v81.96c0,1.08-0.19,1.89-0.56,2.34c-0.21,0.25-0.92,0.94-3.13,1.8l-10.84,4.53l1.96,7.18h43.56l1.96-7.2
			l-14.53-5.91V154.73z"/>
		<path class="st9" d="M469.79,165.27l7.32,2.13l8.43-15.69l18.63-0.55v82.79c0,1.08-0.19,1.89-0.56,2.34
			c-0.21,0.26-0.92,0.94-3.13,1.8l-10.84,4.53l1.96,7.18h43.56l1.96-7.2l-14.53-5.91v-83.44c0-0.66,0.18-1.16,0.59-1.62
			c0.12-0.14,0.4-0.45,1.51-0.37l16.53,0.45l8.43,15.68l7.32-2.13v-26.38h-87.19V165.27z"/>
		<path class="st9" d="M627.88,236.14l-32.72,0.59v-82c0-1.08,0.19-1.89,0.56-2.34c0.21-0.25,0.92-0.94,3.13-1.8l10.84-4.53
			l-1.96-7.18h-43.56l-1.96,7.2l14.53,5.91v81.96c0,1.08-0.19,1.89-0.56,2.34c-0.21,0.25-0.92,0.94-3.13,1.8l-10.84,4.53l1.96,7.18
			h80.11v-26.48l-8.34-1.94L627.88,236.14z"/>
		<path class="st9" d="M715.2,236.14l-31.9,0.59v-36.52c10.79,0.05,22.36,0.43,34.44,1.14l1.97,0.12l2.4-12.23l-3.33-3.64l-6.35,0.6
			c-9.8,0.9-19.58,1.39-29.12,1.46v-33.09c0-2.46,0.89-2.65,2.11-2.65l28.97,0.63l8.05,14.77l8.33-1.94v-26.48h-78.47l-1.96,7.2
			l14.53,5.91v81.96c0,1.08-0.19,1.89-0.56,2.34c-0.21,0.25-0.92,0.94-3.13,1.8l-10.84,4.53l1.96,7.18h79.29v-26.48l-8.33-1.94
			L715.2,236.14z"/>
		<path class="st9" d="M849.87,138.88h-39.63l-1.96,7.2l13.95,5.68l-24.68,71.25l-24.37-69.03l-0.05-0.14
			c-0.2-0.47-0.31-0.89-0.31-1.23c0-0.41,0-1.25,1.89-2.01l10.84-4.53l-1.96-7.18h-43.56l-1.96,7.2l13.69,5.62l35.2,97.57l4.95,1.98
			l11.84-3.49l33.12-92.24c0.95-2.59,1.44-3.35,1.56-3.51c0.02-0.02,0.46-0.53,2.59-1.4l10.84-4.53L849.87,138.88z"/>
		<path class="st9" d="M933.46,152.69c-9.46-10.03-21.72-15.11-36.43-15.11c-14.64,0-27.34,4.71-37.78,14.01
			c-5.04,4.58-9.09,10.7-12.04,18.2c-2.93,7.43-4.41,15.97-4.41,25.38c0,17.33,4.78,31.13,14.21,41.01
			c9.46,9.91,21.74,14.94,36.5,14.94c14.7,0,27.32-4.66,37.51-13.83c5.15-4.58,9.26-10.68,12.22-18.13
			c2.93-7.38,4.41-15.89,4.41-25.31C947.66,176.53,942.88,162.68,933.46,152.69z M896.29,236.44c-11.03,0-19.19-3.72-24.96-11.38
			c-5.83-7.74-8.79-18.8-8.79-32.85c0-13.88,3.18-25.38,9.46-34.17c5.88-3.63,13.39-5.48,22.32-5.48c10.92,0,19.03,3.72,24.79,11.37
			c5.83,7.75,8.79,19.05,8.79,33.59c0,14.35-3.17,25.58-9.42,33.41C912.82,234.6,905.35,236.44,896.29,236.44z"/>
	
	
		<path class="st9" d="M347.8,316.16c-6.41,0-11.68-2.1-15.8-6.29c-4.12-4.19-6.18-10.1-6.18-17.72c0-7.62,2.24-13.55,6.72-17.79
			c4.48-4.24,9.86-6.36,16.12-6.36c4.48,0,7.95,0.99,10.41,2.97c1.73,1.35,2.92,2.56,3.54,3.62l-4.7,6.51l-1.74-0.51l-0.36-6.8
			c-2.22-0.77-5.03-1.16-8.42-1.16c-3.4,0-6.28,0.53-8.64,1.59c-4.34,4.05-6.51,9.78-6.51,17.21c0,6.51,1.69,11.51,5.06,15
			c3.37,3.5,7.64,5.24,12.8,5.24c3.91,0,7.93-1.04,12.08-3.11l1.08,2.1c-1.25,1.25-3.24,2.48-5.96,3.69
			C354.58,315.56,351.41,316.16,347.8,316.16z"/>
		<path class="st9" d="M367.9,292.44c0-4.05,0.63-7.66,1.88-10.85c1.25-3.18,2.94-5.74,5.06-7.67c4.43-3.95,9.77-5.93,16.01-5.93
			s11.36,2.12,15.37,6.36c4,4.24,6,10.08,6,17.5c0,4.05-0.63,7.65-1.88,10.81c-1.25,3.16-2.96,5.7-5.13,7.63
			c-4.34,3.91-9.64,5.86-15.91,5.86c-6.27,0-11.4-2.1-15.4-6.29C369.9,305.68,367.9,299.87,367.9,292.44z M379.11,275.31
			c-2.99,4.1-4.48,9.38-4.48,15.83c0,6.46,1.36,11.5,4.09,15.11c2.72,3.62,6.66,5.42,11.82,5.42c4.29,0,7.78-0.89,10.48-2.68
			c2.99-3.66,4.48-8.83,4.48-15.51c0-6.68-1.36-11.82-4.09-15.44s-6.64-5.42-11.75-5.42C385.42,272.63,381.9,273.52,379.11,275.31z"
			/>
		<path class="st9" d="M468.55,274.58l1.66,36.88l6.22,2.53l-0.43,1.59h-17.14l-0.43-1.59l3.25-1.59c1.54-0.72,2.29-1.66,2.24-2.82
			l-1.59-35.43l-13.88,39.99l-4.48,1.45l-1.37-0.72l-13.52-40.64l-2.02,37.24l5.5,2.53l-0.43,1.59h-15.19l-0.43-1.59l3.98-1.66
			c1.21-0.53,1.9-1.06,2.1-1.59c0.05-0.24,0.1-0.63,0.15-1.16l1.81-36.88l-6.22-2.53l0.43-1.59h14.61l0.94,0.72l12.22,37.74
			l12.8-38.47h15.04l0.43,1.59l-3.98,1.66C469.25,272.46,468.5,273.38,468.55,274.58z"/>
		<path class="st9" d="M497.9,295.84c-1.06,0-2.7-0.05-4.92-0.14v15.47l6.94,2.82l-0.43,1.59h-18.44l-0.43-1.59l3.98-1.66
			c0.87-0.34,1.46-0.7,1.77-1.08c0.31-0.39,0.47-0.94,0.47-1.66V272.7l-6.22-2.53l0.43-1.59c7.66-0.39,13.01-0.58,16.05-0.58
			c6.31,0,11,1.12,14.06,3.36c3.06,2.24,4.59,5.7,4.59,10.38C515.76,291.14,509.81,295.84,497.9,295.84z M498.34,271.98h-3.4
			c-1.3,0-1.95,0.6-1.95,1.81v17.93c1.25,0.19,2.7,0.29,4.34,0.29c3.37,0,6.41-0.55,9.11-1.66c1.73-1.35,2.6-3.83,2.6-7.45
			C509.04,275.62,505.47,271.98,498.34,271.98z"/>
		<path class="st9" d="M548.59,310.52c0-0.29-0.07-0.6-0.22-0.94l-3.25-9.18h-16.78l-3.83,11.06l6.22,2.53l-0.43,1.59h-15.98
			l-0.43-1.59l3.98-1.66c0.82-0.34,1.34-0.65,1.56-0.94c0.22-0.29,0.49-0.89,0.83-1.81l14.46-40.27l4.41-1.3l1.45,0.58l15.55,43.09
			l5.64,2.31l-0.43,1.59H543.6l-0.43-1.59l3.98-1.66C548.11,311.94,548.59,311.34,548.59,310.52z M536.66,276.39l-7.09,20.32h14.24
			L536.66,276.39z"/>
		<path class="st9" d="M606.22,274.58v41l-5.21,0.58l-26.75-38.03v33.33l6.22,2.53l-0.43,1.59H563.7l-0.43-1.59l3.98-1.66
			c0.87-0.34,1.46-0.7,1.77-1.08c0.31-0.39,0.47-0.94,0.47-1.66V272.7l-6.22-2.53l0.43-1.59h12.07l25.6,36.44v0.15l0.07-0.15V272.7
			l-6.22-2.53l0.43-1.59H612l0.43,1.59l-3.98,1.66c-0.87,0.34-1.46,0.7-1.77,1.08C606.37,273.31,606.22,273.86,606.22,274.58z"/>
		<path class="st9" d="M632.97,309.58v-15.55l-14.32-21.55l-5.06-2.31l0.43-1.59h17.42l0.43,1.59l-3.4,1.66
			c-1.06,0.48-1.59,1.06-1.59,1.73c0,0.34,0.12,0.68,0.36,1.01l9.83,14.6l10.7-16.49l-6.22-2.53l0.43-1.59h16.2l0.43,1.59
			l-3.98,1.66c-0.92,0.39-1.58,0.81-1.99,1.26c-0.41,0.46-0.79,0.95-1.12,1.48l-12.44,19.23v17.64l6.22,2.53l-0.43,1.59h-17.72
			l-0.43-1.59l3.98-1.66c0.87-0.34,1.46-0.7,1.77-1.08C632.81,310.86,632.97,310.3,632.97,309.58z"/>
		<path class="st9" d="M685.97,274.58v37.24l16.05-0.29l3.47-6.36l2.17,0.51v9.91h-33.62l-0.43-1.59l3.98-1.66
			c0.87-0.34,1.46-0.7,1.77-1.08c0.31-0.39,0.47-0.94,0.47-1.66V272.7l-6.22-2.53l0.43-1.59h17.71l0.43,1.59l-3.98,1.66
			c-0.87,0.34-1.46,0.7-1.77,1.08C686.12,273.31,685.97,273.86,685.97,274.58z"/>
		<path class="st9" d="M723.56,274.58v36.88l6.22,2.53l-0.43,1.59h-17.71l-0.43-1.59l3.98-1.66c0.87-0.34,1.46-0.7,1.77-1.08
			c0.31-0.39,0.47-0.94,0.47-1.66V272.7l-6.22-2.53l0.43-1.59h17.71l0.43,1.59l-3.98,1.66c-0.87,0.34-1.46,0.7-1.77,1.08
			C723.72,273.31,723.56,273.86,723.56,274.58z"/>
		<path class="st9" d="M786.04,274.58l1.66,36.88l6.22,2.53l-0.43,1.59h-17.14l-0.43-1.59l3.25-1.59c1.54-0.72,2.29-1.66,2.24-2.82
			l-1.59-35.43l-13.88,39.99l-4.48,1.45l-1.37-0.72l-13.52-40.64l-2.02,37.24l5.5,2.53l-0.43,1.59h-15.19l-0.43-1.59l3.98-1.66
			c1.21-0.53,1.9-1.06,2.1-1.59c0.05-0.24,0.1-0.63,0.15-1.16L742,272.7l-6.22-2.53l0.43-1.59h14.61l0.94,0.72l12.22,37.74
			l12.8-38.47h15.04l0.43,1.59l-3.98,1.66C786.73,272.46,785.99,273.38,786.04,274.58z"/>
		<path class="st9" d="M810.47,274.58v36.88l6.22,2.53l-0.43,1.59h-17.71l-0.43-1.59l3.98-1.66c0.87-0.34,1.46-0.7,1.77-1.08
			c0.31-0.39,0.47-0.94,0.47-1.66V272.7l-6.22-2.53l0.43-1.59h17.71l0.43,1.59l-3.98,1.66c-0.87,0.34-1.46,0.7-1.77,1.08
			C810.63,273.31,810.47,273.86,810.47,274.58z"/>
		<path class="st9" d="M857.04,268.58v9.91l-1.73,0.51l-3.62-6.72l-7.88-0.22c-0.63-0.05-1.11,0.12-1.45,0.51
			c-0.34,0.39-0.51,0.84-0.51,1.37v37.53l6.22,2.53l-0.43,1.59h-17.72l-0.43-1.59l3.98-1.66c0.87-0.34,1.46-0.7,1.77-1.08
			c0.31-0.39,0.47-0.94,0.47-1.66v-37.6l-9.83,0.29l-3.62,6.72l-1.74-0.51v-9.91H857.04z"/>
		<path class="st9" d="M873.24,274.51v15.62c4.58,0,9.23-0.22,13.96-0.65l2.31-0.22l0.8,0.87l-0.8,4.05
			c-5.74-0.34-11.16-0.51-16.27-0.51v18.15l15.69-0.29l3.47-6.36l2.17,0.51v9.91h-33.26l-0.43-1.59l3.98-1.66
			c0.87-0.34,1.46-0.7,1.77-1.08c0.31-0.39,0.47-0.94,0.47-1.66V272.7l-6.22-2.53l0.43-1.59h32.9v9.91l-2.17,0.51l-3.47-6.36
			l-13.38-0.29C873.89,272.34,873.24,273.07,873.24,274.51z"/>
		<path class="st9" d="M906.5,309.58V272.7l-6.22-2.53l0.43-1.59c10.89-0.39,17.74-0.58,20.53-0.58c16.1,0,24.15,8.24,24.15,24.73
			c0,8.58-2.28,14.63-6.83,18.15c-4.55,3.52-11.75,5.28-21.58,5.28c-1.21,0-6.63-0.19-16.27-0.58l-0.43-1.59l3.98-1.66
			c0.87-0.34,1.46-0.7,1.77-1.08C906.34,310.86,906.5,310.3,906.5,309.58z M922.33,271.98h-7.74c-1.3,0-1.95,0.6-1.95,1.81v37.96
			c1.88,0.19,4.29,0.29,7.23,0.29c6.36,0,11.13-1.04,14.32-3.11c2.99-3.66,4.48-8.83,4.48-15.51c0-6.68-1.4-11.92-4.19-15.73
			C931.68,273.89,927.63,271.98,922.33,271.98z"/>
	

</svg>
